<svg xmlns="http://www.w3.org/2000/svg" viewBox="0 0 305 317" width="32" height="32" fill="#ada8e6" opacity="0.6">
    <g featurekey="xG21Y3-0"
        transform="matrix(5.869565217391305,0,0,5.869565217391305,-52.82608695652174,-29.347826086956523)">
        <path
            d="M54,15c-8.748,0-13-2.944-13-9c0-0.552-0.447-1-1-1H24c-0.552,0-1,0.448-1,1c0,6.056-4.252,9-13,9c-0.552,0-1,0.448-1,1v18c0,10.37,21.544,24.257,22.461,24.843C31.625,58.947,31.813,59,32,59s0.375-0.053,0.539-0.157C33.456,58.257,55,44.37,55,34V16C55,15.448,54.553,15,54,15zM25.707,37.293c0.391,0.391,0.391,1.023,0,1.414C25.512,38.902,25.256,39,25,39s-0.512-0.098-0.707-0.293l-6-6c-0.391-0.391-0.391-1.023,0-1.414l6-6c0.391-0.391,1.023-0.391,1.414,0s0.391,1.023,0,1.414L20.414,32L25.707,37.293zM35.958,22.287l-6,20C29.828,42.721,29.431,43,29,43c-0.095,0-0.192-0.014-0.288-0.042c-0.529-0.159-0.83-0.717-0.671-1.245l6-20c0.158-0.529,0.715-0.83,1.245-0.671C35.816,21.201,36.116,21.758,35.958,22.287zM45.707,32.707l-6,6C39.512,38.902,39.256,39,39,39s-0.512-0.098-0.707-0.293c-0.391-0.391-0.391-1.023,0-1.414L43.586,32l-5.293-5.293c-0.391-0.391-0.391-1.023,0-1.414s1.023-0.391,1.414,0l6,6C46.098,31.684,46.098,32.316,45.707,32.707z">
        </path>
    </g>
</svg>